<?xml version="1.0" encoding="utf-8"?>
<!-- Generator: Adobe Illustrator 19.1.0, SVG Export Plug-In . SVG Version: 6.00 Build 0)  -->
<svg version="1.1" id="Layer_1" xmlns="http://www.w3.org/2000/svg" xmlns:xlink="http://www.w3.org/1999/xlink" x="0px" y="0px"
	 viewBox="-139 51 512 512" style="enable-background:new -139 51 512 512;" xml:space="preserve">
<style type="text/css">
	.st0{fill:#6CBD45;stroke:#6CBD45;stroke-miterlimit:10;}
</style>
<g>
	<g>
		<path class="st0" d="M175.3,455.3c0.5-0.7,0.9-1.5,1.3-2.3c0.1-0.1,0.2-0.3,0.2-0.4c0.4-0.7,0.8-1.4,1.1-2.1
			c0.1-0.2,0.3-0.5,0.4-0.7c0.3-0.6,0.6-1.2,0.9-1.8c0.2-0.4,0.3-0.7,0.5-1.1c0.2-0.5,0.4-1,0.6-1.5c0.2-0.5,0.4-1,0.6-1.5
			c0.1-0.4,0.3-0.8,0.4-1.1c0.2-0.6,0.5-1.3,0.7-1.9c0.1-0.3,0.2-0.5,0.3-0.8c0.2-0.7,0.5-1.5,0.7-2.3c0-0.2,0.1-0.3,0.1-0.5
			c0.2-0.8,0.5-1.7,0.7-2.6c0-0.1,0-0.1,0-0.2c0.4-1.6,0.7-3.2,0.9-4.8l28.3-6.4v-8.9l-28.3-6.4c-0.3-1.6-0.6-3.2-0.9-4.8
			c0-0.1,0-0.1,0-0.2c-0.2-0.9-0.4-1.7-0.7-2.6c0-0.2-0.1-0.3-0.1-0.5c-0.2-0.8-0.4-1.5-0.7-2.3c-0.1-0.3-0.2-0.5-0.3-0.8
			c-0.2-0.6-0.4-1.3-0.7-1.9c-0.1-0.4-0.3-0.8-0.4-1.1c-0.2-0.5-0.4-1-0.6-1.5c-0.2-0.5-0.4-1-0.6-1.5c-0.2-0.4-0.3-0.7-0.5-1.1
			c-0.3-0.6-0.6-1.2-0.9-1.8c-0.1-0.2-0.3-0.5-0.4-0.7c-0.4-0.7-0.7-1.4-1.1-2.1c-0.1-0.1-0.2-0.3-0.2-0.4c-0.4-0.8-0.9-1.5-1.3-2.3
			c0-0.1-0.1-0.1-0.1-0.2c-0.9-1.4-1.7-2.7-2.7-4l15.5-24.5l-6.3-6.3l-24.5,15.5c-9-6.5-19.2-10.6-29.7-12.3l-6.4-28.4h-8.9
			l-6.4,28.4c-10.5,1.7-20.6,5.8-29.6,12.3l-24.6-15.6l-6.3,6.3L61,378.6c-2.4,3.3-4.5,6.8-6.2,10.4c-0.1,0.1-0.1,0.3-0.2,0.4
			c-0.3,0.7-0.6,1.3-0.9,2c-0.2,0.4-0.4,0.8-0.5,1.2c-0.2,0.4-0.3,0.8-0.5,1.2c-0.3,0.7-0.5,1.4-0.8,2.1c-0.1,0.1-0.1,0.3-0.2,0.4
			c-1.3,3.8-2.3,7.7-3,11.7l-28.4,6.4v8.9l28.4,6.4c1.7,10.9,6,21,12.2,29.6L45.4,484l6.3,6.3l24.6-15.6
			c8.6,6.2,18.7,10.6,29.6,12.3l6.4,28.3h8.9l6.4-28.3c1.6-0.3,3.2-0.6,4.8-0.9c0.1,0,0.1,0,0.2,0c0.9-0.2,1.7-0.4,2.6-0.7
			c0.2,0,0.3-0.1,0.5-0.1c0.8-0.2,1.5-0.4,2.2-0.7c0.3-0.1,0.5-0.2,0.8-0.3c0.6-0.2,1.3-0.4,1.9-0.7c0.4-0.1,0.8-0.3,1.1-0.4
			c0.5-0.2,1-0.4,1.5-0.6c0.5-0.2,1-0.4,1.5-0.6c0.4-0.2,0.7-0.3,1.1-0.5c0.6-0.3,1.2-0.6,1.8-0.9c0.2-0.1,0.5-0.2,0.7-0.4
			c0.7-0.4,1.4-0.7,2.1-1.1c0.1-0.1,0.3-0.2,0.4-0.2c0.8-0.4,1.5-0.9,2.3-1.4c0.1,0,0.1-0.1,0.2-0.1c1.4-0.9,2.7-1.7,4-2.7
			l24.5,15.5l6.3-6.3l-15.5-24.5c1-1.3,1.8-2.7,2.7-4C175.3,455.4,175.3,455.3,175.3,455.3z M116.7,473.3c-30,0-54.3-24.3-54.3-54.3
			c0-30,24.3-54.3,54.3-54.3c30,0,54.3,24.3,54.3,54.3C171.1,449,146.7,473.3,116.7,473.3z"/>
		<polygon class="st0" points="88,454.1 154.6,418.7 88,383.2 		"/>
	</g>
	<path d="M-9.8,83h256v64h32V83c0-17.7-14.3-32-32-32h-256c-17.7,0-32,14.3-32,32v64h32V83z"/>
	<path d="M342.2,179h-448c-17.7,0-32,14.3-32,32v160c0,17.7,14.3,32,32,32h64v128c0,17.7,14.3,32,32,32h256c17.7,0,32-14.3,32-32
		V403h64c17.7,0,32-14.3,32-32V211C374.2,193.3,359.8,179,342.2,179z M246.2,531h-256V307h256V531z M310.2,275
		c-17.7,0-32-14.3-32-32c0-17.7,14.3-32,32-32s32,14.3,32,32C342.2,260.7,327.8,275,310.2,275z"/>
</g>
</svg>
